<svg width="100" height="100" viewBox="0 0 100 100" fill="none" xmlns="http://www.w3.org/2000/svg">
<path d="M80.8027 38.6249C85.9153 50.3222 84.1064 63.918 74.1351 73.851C64.2273 83.7208 50.4799 85.5603 38.6782 80.5877L25.6232 93.5926C44.0458 104.1 67.6816 102.012 84.8503 84.9096C101.949 67.8766 104.097 44.1919 93.6958 25.7812L80.8027 38.6249Z" fill="#414042"/>
<path d="M19.2034 61.3693C14.1306 49.7045 15.997 36.1733 25.9619 26.2465C35.8631 16.3834 49.5455 14.487 61.3144 19.42L74.3765 6.40807C55.9543 -4.09845 32.318 -2.01155 15.1495 15.091C-1.94875 32.1236 -4.09733 55.8079 6.30407 74.2192L19.2034 61.3693Z" fill="#414042"/>
<path d="M44.5381 55.4401C41.5214 52.4352 41.5214 47.5633 44.5381 44.5585C47.5546 41.5535 52.4454 41.5534 55.4619 44.5581C58.4785 47.563 58.4785 52.4348 55.4619 55.4398C52.4454 58.4447 47.5546 58.4449 44.5381 55.4401Z" fill="#414042"/>
</svg>